<mxfile host="65bd71144e">
    <diagram id="kH3DMgPiU-Hju9WFrL9V" name="Page-1">
        <mxGraphModel dx="3135" dy="1529" grid="1" gridSize="10" guides="1" tooltips="1" connect="1" arrows="1" fold="1" page="1" pageScale="1" pageWidth="1200" pageHeight="1920" math="0" shadow="0">
            <root>
                <mxCell id="0"/>
                <mxCell id="1" parent="0"/>
                <mxCell id="2" value="" style="rounded=0;whiteSpace=wrap;html=1;movable=1;resizable=1;rotatable=1;deletable=1;editable=1;locked=0;connectable=1;fillColor=#ffe6cc;strokeColor=#d79b00;" vertex="1" parent="1">
                    <mxGeometry x="40" y="240" width="880" height="80" as="geometry"/>
                </mxCell>
                <mxCell id="3" value="&lt;span style=&quot;font-size: 18px;&quot;&gt;单向链表&lt;/span&gt;" style="text;html=1;align=center;verticalAlign=middle;whiteSpace=wrap;rounded=0;" vertex="1" parent="1">
                    <mxGeometry x="425" y="190" width="110" height="30" as="geometry"/>
                </mxCell>
                <mxCell id="4" value="" style="rounded=0;whiteSpace=wrap;html=1;fillColor=#cdeb8b;strokeColor=#36393d;" vertex="1" parent="1">
                    <mxGeometry x="50" y="250" width="140" height="60" as="geometry"/>
                </mxCell>
                <mxCell id="5" value="&lt;font style=&quot;color: light-dark(rgb(255, 255, 255), rgb(237, 237, 237)); font-size: 18px;&quot;&gt;Apple&lt;/font&gt;" style="rounded=0;whiteSpace=wrap;html=1;fillColor=light-dark(#3d91ff, #ededed);" vertex="1" parent="1">
                    <mxGeometry x="60" y="260" width="80" height="40" as="geometry"/>
                </mxCell>
                <mxCell id="6" style="edgeStyle=none;html=1;exitX=1;exitY=0.5;exitDx=0;exitDy=0;" edge="1" parent="1" source="7">
                    <mxGeometry relative="1" as="geometry">
                        <mxPoint x="230" y="279.96" as="targetPoint"/>
                    </mxGeometry>
                </mxCell>
                <mxCell id="7" value="&lt;font style=&quot;color: light-dark(rgb(255, 255, 255), rgb(237, 237, 237)); font-size: 14px;&quot;&gt;next&lt;/font&gt;" style="rounded=0;whiteSpace=wrap;html=1;fillColor=#FF6666;" vertex="1" parent="1">
                    <mxGeometry x="140" y="260" width="40" height="40" as="geometry"/>
                </mxCell>
                <mxCell id="8" value="" style="rounded=0;whiteSpace=wrap;html=1;fillColor=#cdeb8b;strokeColor=#36393d;" vertex="1" parent="1">
                    <mxGeometry x="230" y="250" width="140" height="60" as="geometry"/>
                </mxCell>
                <mxCell id="9" style="edgeStyle=none;html=1;exitX=1;exitY=0.5;exitDx=0;exitDy=0;" edge="1" parent="1" source="10">
                    <mxGeometry relative="1" as="geometry">
                        <mxPoint x="410" y="280" as="targetPoint"/>
                    </mxGeometry>
                </mxCell>
                <mxCell id="10" value="&lt;font style=&quot;color: light-dark(rgb(255, 255, 255), rgb(237, 237, 237)); font-size: 14px;&quot;&gt;next&lt;/font&gt;" style="rounded=0;whiteSpace=wrap;html=1;fillColor=#FF6666;" vertex="1" parent="1">
                    <mxGeometry x="320" y="260" width="40" height="40" as="geometry"/>
                </mxCell>
                <mxCell id="11" value="&lt;font style=&quot;color: light-dark(rgb(255, 255, 255), rgb(237, 237, 237)); font-size: 18px;&quot;&gt;Banana&lt;/font&gt;" style="rounded=0;whiteSpace=wrap;html=1;fillColor=light-dark(#3d91ff, #ededed);" vertex="1" parent="1">
                    <mxGeometry x="240" y="260" width="80" height="40" as="geometry"/>
                </mxCell>
                <mxCell id="12" value="" style="rounded=0;whiteSpace=wrap;html=1;fillColor=#cdeb8b;strokeColor=#36393d;" vertex="1" parent="1">
                    <mxGeometry x="410" y="250" width="140" height="60" as="geometry"/>
                </mxCell>
                <mxCell id="13" style="edgeStyle=none;html=1;exitX=1;exitY=0.5;exitDx=0;exitDy=0;" edge="1" parent="1" source="14">
                    <mxGeometry relative="1" as="geometry">
                        <mxPoint x="590" y="280" as="targetPoint"/>
                    </mxGeometry>
                </mxCell>
                <mxCell id="14" value="&lt;font style=&quot;color: light-dark(rgb(255, 255, 255), rgb(237, 237, 237)); font-size: 14px;&quot;&gt;next&lt;/font&gt;" style="rounded=0;whiteSpace=wrap;html=1;fillColor=#FF6666;" vertex="1" parent="1">
                    <mxGeometry x="500" y="260" width="40" height="40" as="geometry"/>
                </mxCell>
                <mxCell id="15" value="&lt;font style=&quot;color: light-dark(rgb(255, 255, 255), rgb(237, 237, 237)); font-size: 18px;&quot;&gt;Orange&lt;/font&gt;" style="rounded=0;whiteSpace=wrap;html=1;fillColor=light-dark(#3d91ff, #ededed);" vertex="1" parent="1">
                    <mxGeometry x="420" y="260" width="80" height="40" as="geometry"/>
                </mxCell>
                <mxCell id="16" style="edgeStyle=none;html=1;exitX=1;exitY=0.5;exitDx=0;exitDy=0;" edge="1" parent="1" source="17">
                    <mxGeometry relative="1" as="geometry">
                        <mxPoint x="770" y="280" as="targetPoint"/>
                    </mxGeometry>
                </mxCell>
                <mxCell id="17" value="" style="rounded=0;whiteSpace=wrap;html=1;fillColor=#cdeb8b;strokeColor=#36393d;" vertex="1" parent="1">
                    <mxGeometry x="590" y="250" width="140" height="60" as="geometry"/>
                </mxCell>
                <mxCell id="18" value="&lt;font style=&quot;color: light-dark(rgb(255, 255, 255), rgb(237, 237, 237)); font-size: 14px;&quot;&gt;next&lt;/font&gt;" style="rounded=0;whiteSpace=wrap;html=1;fillColor=#FF6666;" vertex="1" parent="1">
                    <mxGeometry x="680" y="260" width="40" height="40" as="geometry"/>
                </mxCell>
                <mxCell id="19" value="&lt;font style=&quot;color: light-dark(rgb(255, 255, 255), rgb(237, 237, 237)); font-size: 18px;&quot;&gt;Peach&lt;/font&gt;" style="rounded=0;whiteSpace=wrap;html=1;fillColor=light-dark(#3d91ff, #ededed);" vertex="1" parent="1">
                    <mxGeometry x="600" y="260" width="80" height="40" as="geometry"/>
                </mxCell>
                <mxCell id="20" value="" style="rounded=0;whiteSpace=wrap;html=1;fillColor=#cdeb8b;strokeColor=#36393d;" vertex="1" parent="1">
                    <mxGeometry x="770" y="250" width="140" height="60" as="geometry"/>
                </mxCell>
                <mxCell id="21" value="&lt;font style=&quot;color: light-dark(rgb(255, 255, 255), rgb(237, 237, 237)); font-size: 14px;&quot;&gt;next&lt;/font&gt;" style="rounded=0;whiteSpace=wrap;html=1;fillColor=#FF6666;" vertex="1" parent="1">
                    <mxGeometry x="860" y="260" width="40" height="40" as="geometry"/>
                </mxCell>
                <mxCell id="22" value="&lt;font style=&quot;color: light-dark(rgb(255, 255, 255), rgb(237, 237, 237)); font-size: 18px;&quot;&gt;Pear&lt;/font&gt;" style="rounded=0;whiteSpace=wrap;html=1;fillColor=light-dark(#3d91ff, #ededed);" vertex="1" parent="1">
                    <mxGeometry x="780" y="260" width="80" height="40" as="geometry"/>
                </mxCell>
                <mxCell id="23" value="" style="rounded=0;whiteSpace=wrap;html=1;movable=1;resizable=1;rotatable=1;deletable=1;editable=1;locked=0;connectable=1;fillColor=#ffe6cc;strokeColor=#d79b00;" vertex="1" parent="1">
                    <mxGeometry x="40" y="500" width="1100" height="100" as="geometry"/>
                </mxCell>
                <mxCell id="24" value="&lt;span style=&quot;font-size: 18px;&quot;&gt;双向链表&lt;/span&gt;" style="text;html=1;align=center;verticalAlign=middle;whiteSpace=wrap;rounded=0;" vertex="1" parent="1">
                    <mxGeometry x="350" y="450" width="260" height="30" as="geometry"/>
                </mxCell>
                <mxCell id="25" value="" style="rounded=0;whiteSpace=wrap;html=1;fillColor=#cdeb8b;strokeColor=#36393d;" vertex="1" parent="1">
                    <mxGeometry x="60" y="520" width="180" height="60" as="geometry"/>
                </mxCell>
                <mxCell id="26" value="&lt;font style=&quot;color: light-dark(rgb(255, 255, 255), rgb(237, 237, 237)); font-size: 18px;&quot;&gt;Apple&lt;/font&gt;" style="rounded=0;whiteSpace=wrap;html=1;fillColor=light-dark(#3d91ff, #ededed);" vertex="1" parent="1">
                    <mxGeometry x="110" y="530" width="80" height="40" as="geometry"/>
                </mxCell>
                <mxCell id="27" style="edgeStyle=none;html=1;exitX=1;exitY=0.5;exitDx=0;exitDy=0;" edge="1" parent="1">
                    <mxGeometry relative="1" as="geometry">
                        <mxPoint x="290" y="546" as="targetPoint"/>
                        <mxPoint x="230" y="546" as="sourcePoint"/>
                    </mxGeometry>
                </mxCell>
                <mxCell id="28" value="&lt;font style=&quot;color: light-dark(rgb(255, 255, 255), rgb(237, 237, 237)); font-size: 14px;&quot;&gt;next&lt;/font&gt;" style="rounded=0;whiteSpace=wrap;html=1;fillColor=#FF6666;" vertex="1" parent="1">
                    <mxGeometry x="190" y="530" width="40" height="40" as="geometry"/>
                </mxCell>
                <mxCell id="29" value="&lt;font style=&quot;color: light-dark(rgb(255, 255, 255), rgb(237, 237, 237)); font-size: 14px;&quot;&gt;prev&lt;/font&gt;" style="rounded=0;whiteSpace=wrap;html=1;fillColor=#FF6666;" vertex="1" parent="1">
                    <mxGeometry x="70" y="530" width="40" height="40" as="geometry"/>
                </mxCell>
                <mxCell id="30" value="" style="rounded=0;whiteSpace=wrap;html=1;fillColor=#cdeb8b;strokeColor=#36393d;" vertex="1" parent="1">
                    <mxGeometry x="290" y="520" width="180" height="60" as="geometry"/>
                </mxCell>
                <mxCell id="31" value="&lt;font style=&quot;color: light-dark(rgb(255, 255, 255), rgb(237, 237, 237)); font-size: 18px;&quot;&gt;Banana&lt;/font&gt;" style="rounded=0;whiteSpace=wrap;html=1;fillColor=light-dark(#3d91ff, #ededed);" vertex="1" parent="1">
                    <mxGeometry x="340" y="530" width="80" height="40" as="geometry"/>
                </mxCell>
                <mxCell id="32" style="edgeStyle=none;html=1;exitX=1;exitY=0.5;exitDx=0;exitDy=0;" edge="1" parent="1">
                    <mxGeometry relative="1" as="geometry">
                        <mxPoint x="510" y="546" as="targetPoint"/>
                        <mxPoint x="460" y="546" as="sourcePoint"/>
                    </mxGeometry>
                </mxCell>
                <mxCell id="33" value="&lt;font style=&quot;color: light-dark(rgb(255, 255, 255), rgb(237, 237, 237)); font-size: 14px;&quot;&gt;next&lt;/font&gt;" style="rounded=0;whiteSpace=wrap;html=1;fillColor=#FF6666;" vertex="1" parent="1">
                    <mxGeometry x="420" y="530" width="40" height="40" as="geometry"/>
                </mxCell>
                <mxCell id="34" value="" style="edgeStyle=none;html=1;" edge="1" parent="1">
                    <mxGeometry relative="1" as="geometry">
                        <mxPoint x="300" y="554" as="sourcePoint"/>
                        <mxPoint x="240" y="554" as="targetPoint"/>
                    </mxGeometry>
                </mxCell>
                <mxCell id="35" value="&lt;font style=&quot;color: light-dark(rgb(255, 255, 255), rgb(237, 237, 237)); font-size: 14px;&quot;&gt;prev&lt;/font&gt;" style="rounded=0;whiteSpace=wrap;html=1;fillColor=#FF6666;" vertex="1" parent="1">
                    <mxGeometry x="300" y="530" width="40" height="40" as="geometry"/>
                </mxCell>
                <mxCell id="36" value="" style="rounded=0;whiteSpace=wrap;html=1;fillColor=#cdeb8b;strokeColor=#36393d;" vertex="1" parent="1">
                    <mxGeometry x="510" y="520" width="180" height="60" as="geometry"/>
                </mxCell>
                <mxCell id="37" value="&lt;font style=&quot;color: light-dark(rgb(255, 255, 255), rgb(237, 237, 237)); font-size: 18px;&quot;&gt;Orange&lt;/font&gt;" style="rounded=0;whiteSpace=wrap;html=1;fillColor=light-dark(#3d91ff, #ededed);" vertex="1" parent="1">
                    <mxGeometry x="560" y="530" width="80" height="40" as="geometry"/>
                </mxCell>
                <mxCell id="38" style="edgeStyle=none;html=1;exitX=1;exitY=0.5;exitDx=0;exitDy=0;" edge="1" parent="1">
                    <mxGeometry relative="1" as="geometry">
                        <mxPoint x="720" y="546" as="targetPoint"/>
                        <mxPoint x="680" y="546" as="sourcePoint"/>
                    </mxGeometry>
                </mxCell>
                <mxCell id="39" value="&lt;font style=&quot;color: light-dark(rgb(255, 255, 255), rgb(237, 237, 237)); font-size: 14px;&quot;&gt;next&lt;/font&gt;" style="rounded=0;whiteSpace=wrap;html=1;fillColor=#FF6666;" vertex="1" parent="1">
                    <mxGeometry x="640" y="530" width="40" height="40" as="geometry"/>
                </mxCell>
                <mxCell id="40" style="edgeStyle=none;html=1;exitX=0;exitY=0.5;exitDx=0;exitDy=0;" edge="1" parent="1">
                    <mxGeometry relative="1" as="geometry">
                        <mxPoint x="470" y="554" as="targetPoint"/>
                        <mxPoint x="520" y="554" as="sourcePoint"/>
                    </mxGeometry>
                </mxCell>
                <mxCell id="41" value="&lt;font style=&quot;color: light-dark(rgb(255, 255, 255), rgb(237, 237, 237)); font-size: 14px;&quot;&gt;prev&lt;/font&gt;" style="rounded=0;whiteSpace=wrap;html=1;fillColor=#FF6666;" vertex="1" parent="1">
                    <mxGeometry x="520" y="530" width="40" height="40" as="geometry"/>
                </mxCell>
                <mxCell id="42" value="" style="rounded=0;whiteSpace=wrap;html=1;fillColor=#cdeb8b;strokeColor=#36393d;" vertex="1" parent="1">
                    <mxGeometry x="720" y="520" width="180" height="60" as="geometry"/>
                </mxCell>
                <mxCell id="43" value="&lt;font style=&quot;color: light-dark(rgb(255, 255, 255), rgb(237, 237, 237)); font-size: 18px;&quot;&gt;Peach&lt;/font&gt;" style="rounded=0;whiteSpace=wrap;html=1;fillColor=light-dark(#3d91ff, #ededed);" vertex="1" parent="1">
                    <mxGeometry x="770" y="530" width="80" height="40" as="geometry"/>
                </mxCell>
                <mxCell id="44" style="edgeStyle=none;html=1;exitX=1;exitY=0.5;exitDx=0;exitDy=0;entryX=0;entryY=0.5;entryDx=0;entryDy=0;" edge="1" parent="1">
                    <mxGeometry relative="1" as="geometry">
                        <mxPoint x="890" y="546" as="sourcePoint"/>
                        <mxPoint x="930" y="546" as="targetPoint"/>
                    </mxGeometry>
                </mxCell>
                <mxCell id="45" value="&lt;font style=&quot;color: light-dark(rgb(255, 255, 255), rgb(237, 237, 237)); font-size: 14px;&quot;&gt;next&lt;/font&gt;" style="rounded=0;whiteSpace=wrap;html=1;fillColor=#FF6666;" vertex="1" parent="1">
                    <mxGeometry x="850" y="530" width="40" height="40" as="geometry"/>
                </mxCell>
                <mxCell id="46" style="edgeStyle=none;html=1;exitX=0;exitY=0.5;exitDx=0;exitDy=0;entryX=1;entryY=0.5;entryDx=0;entryDy=0;" edge="1" parent="1">
                    <mxGeometry relative="1" as="geometry">
                        <mxPoint x="730" y="554" as="sourcePoint"/>
                        <mxPoint x="690" y="554" as="targetPoint"/>
                    </mxGeometry>
                </mxCell>
                <mxCell id="47" value="&lt;font style=&quot;color: light-dark(rgb(255, 255, 255), rgb(237, 237, 237)); font-size: 14px;&quot;&gt;prev&lt;/font&gt;" style="rounded=0;whiteSpace=wrap;html=1;fillColor=#FF6666;" vertex="1" parent="1">
                    <mxGeometry x="730" y="530" width="40" height="40" as="geometry"/>
                </mxCell>
                <mxCell id="48" value="" style="rounded=0;whiteSpace=wrap;html=1;fillColor=#cdeb8b;strokeColor=#36393d;" vertex="1" parent="1">
                    <mxGeometry x="930" y="520" width="180" height="60" as="geometry"/>
                </mxCell>
                <mxCell id="49" value="&lt;font style=&quot;color: light-dark(rgb(255, 255, 255), rgb(237, 237, 237)); font-size: 18px;&quot;&gt;Pear&lt;/font&gt;" style="rounded=0;whiteSpace=wrap;html=1;fillColor=light-dark(#3d91ff, #ededed);" vertex="1" parent="1">
                    <mxGeometry x="980" y="530" width="80" height="40" as="geometry"/>
                </mxCell>
                <mxCell id="50" value="&lt;font style=&quot;color: light-dark(rgb(255, 255, 255), rgb(237, 237, 237)); font-size: 14px;&quot;&gt;next&lt;/font&gt;" style="rounded=0;whiteSpace=wrap;html=1;fillColor=#FF6666;" vertex="1" parent="1">
                    <mxGeometry x="1060" y="530" width="40" height="40" as="geometry"/>
                </mxCell>
                <mxCell id="51" style="edgeStyle=none;html=1;exitX=0;exitY=0.5;exitDx=0;exitDy=0;" edge="1" parent="1">
                    <mxGeometry relative="1" as="geometry">
                        <mxPoint x="900" y="554" as="targetPoint"/>
                        <mxPoint x="940" y="554" as="sourcePoint"/>
                    </mxGeometry>
                </mxCell>
                <mxCell id="52" value="&lt;font style=&quot;color: light-dark(rgb(255, 255, 255), rgb(237, 237, 237)); font-size: 14px;&quot;&gt;prev&lt;/font&gt;" style="rounded=0;whiteSpace=wrap;html=1;fillColor=#FF6666;" vertex="1" parent="1">
                    <mxGeometry x="940" y="530" width="40" height="40" as="geometry"/>
                </mxCell>
                <mxCell id="53" value="" style="rounded=0;whiteSpace=wrap;html=1;movable=1;resizable=1;rotatable=1;deletable=1;editable=1;locked=0;connectable=1;fillColor=#ffe6cc;strokeColor=#d79b00;" vertex="1" parent="1">
                    <mxGeometry x="40" y="750" width="920" height="140" as="geometry"/>
                </mxCell>
                <mxCell id="54" value="&lt;span style=&quot;font-size: 18px;&quot;&gt;单向循环链表&lt;/span&gt;" style="text;html=1;align=center;verticalAlign=middle;whiteSpace=wrap;rounded=0;" vertex="1" parent="1">
                    <mxGeometry x="425" y="700" width="110" height="30" as="geometry"/>
                </mxCell>
                <mxCell id="55" value="" style="rounded=0;whiteSpace=wrap;html=1;fillColor=#cdeb8b;strokeColor=#36393d;" vertex="1" parent="1">
                    <mxGeometry x="50" y="760" width="140" height="60" as="geometry"/>
                </mxCell>
                <mxCell id="56" value="&lt;font style=&quot;color: light-dark(rgb(255, 255, 255), rgb(237, 237, 237)); font-size: 18px;&quot;&gt;Apple&lt;/font&gt;" style="rounded=0;whiteSpace=wrap;html=1;fillColor=light-dark(#3d91ff, #ededed);" vertex="1" parent="1">
                    <mxGeometry x="60" y="770" width="80" height="40" as="geometry"/>
                </mxCell>
                <mxCell id="57" style="edgeStyle=none;html=1;exitX=1;exitY=0.5;exitDx=0;exitDy=0;" edge="1" parent="1" source="58">
                    <mxGeometry relative="1" as="geometry">
                        <mxPoint x="230" y="789.96" as="targetPoint"/>
                    </mxGeometry>
                </mxCell>
                <mxCell id="58" value="&lt;font style=&quot;color: light-dark(rgb(255, 255, 255), rgb(237, 237, 237)); font-size: 14px;&quot;&gt;next&lt;/font&gt;" style="rounded=0;whiteSpace=wrap;html=1;fillColor=#FF6666;" vertex="1" parent="1">
                    <mxGeometry x="140" y="770" width="40" height="40" as="geometry"/>
                </mxCell>
                <mxCell id="59" value="" style="rounded=0;whiteSpace=wrap;html=1;fillColor=#cdeb8b;strokeColor=#36393d;" vertex="1" parent="1">
                    <mxGeometry x="230" y="760" width="140" height="60" as="geometry"/>
                </mxCell>
                <mxCell id="60" style="edgeStyle=none;html=1;exitX=1;exitY=0.5;exitDx=0;exitDy=0;" edge="1" parent="1" source="61">
                    <mxGeometry relative="1" as="geometry">
                        <mxPoint x="410" y="790" as="targetPoint"/>
                    </mxGeometry>
                </mxCell>
                <mxCell id="61" value="&lt;font style=&quot;color: light-dark(rgb(255, 255, 255), rgb(237, 237, 237)); font-size: 14px;&quot;&gt;next&lt;/font&gt;" style="rounded=0;whiteSpace=wrap;html=1;fillColor=#FF6666;" vertex="1" parent="1">
                    <mxGeometry x="320" y="770" width="40" height="40" as="geometry"/>
                </mxCell>
                <mxCell id="62" value="&lt;font style=&quot;color: light-dark(rgb(255, 255, 255), rgb(237, 237, 237)); font-size: 18px;&quot;&gt;Banana&lt;/font&gt;" style="rounded=0;whiteSpace=wrap;html=1;fillColor=light-dark(#3d91ff, #ededed);" vertex="1" parent="1">
                    <mxGeometry x="240" y="770" width="80" height="40" as="geometry"/>
                </mxCell>
                <mxCell id="63" value="" style="rounded=0;whiteSpace=wrap;html=1;fillColor=#cdeb8b;strokeColor=#36393d;" vertex="1" parent="1">
                    <mxGeometry x="410" y="760" width="140" height="60" as="geometry"/>
                </mxCell>
                <mxCell id="64" style="edgeStyle=none;html=1;exitX=1;exitY=0.5;exitDx=0;exitDy=0;" edge="1" parent="1" source="65">
                    <mxGeometry relative="1" as="geometry">
                        <mxPoint x="590" y="790" as="targetPoint"/>
                    </mxGeometry>
                </mxCell>
                <mxCell id="65" value="&lt;font style=&quot;color: light-dark(rgb(255, 255, 255), rgb(237, 237, 237)); font-size: 14px;&quot;&gt;next&lt;/font&gt;" style="rounded=0;whiteSpace=wrap;html=1;fillColor=#FF6666;" vertex="1" parent="1">
                    <mxGeometry x="500" y="770" width="40" height="40" as="geometry"/>
                </mxCell>
                <mxCell id="66" value="&lt;font style=&quot;color: light-dark(rgb(255, 255, 255), rgb(237, 237, 237)); font-size: 18px;&quot;&gt;Orange&lt;/font&gt;" style="rounded=0;whiteSpace=wrap;html=1;fillColor=light-dark(#3d91ff, #ededed);" vertex="1" parent="1">
                    <mxGeometry x="420" y="770" width="80" height="40" as="geometry"/>
                </mxCell>
                <mxCell id="67" style="edgeStyle=none;html=1;exitX=1;exitY=0.5;exitDx=0;exitDy=0;" edge="1" parent="1" source="68">
                    <mxGeometry relative="1" as="geometry">
                        <mxPoint x="770" y="790" as="targetPoint"/>
                    </mxGeometry>
                </mxCell>
                <mxCell id="68" value="" style="rounded=0;whiteSpace=wrap;html=1;fillColor=#cdeb8b;strokeColor=#36393d;" vertex="1" parent="1">
                    <mxGeometry x="590" y="760" width="140" height="60" as="geometry"/>
                </mxCell>
                <mxCell id="69" value="&lt;font style=&quot;color: light-dark(rgb(255, 255, 255), rgb(237, 237, 237)); font-size: 14px;&quot;&gt;next&lt;/font&gt;" style="rounded=0;whiteSpace=wrap;html=1;fillColor=#FF6666;" vertex="1" parent="1">
                    <mxGeometry x="680" y="770" width="40" height="40" as="geometry"/>
                </mxCell>
                <mxCell id="70" value="&lt;font style=&quot;color: light-dark(rgb(255, 255, 255), rgb(237, 237, 237)); font-size: 18px;&quot;&gt;Peach&lt;/font&gt;" style="rounded=0;whiteSpace=wrap;html=1;fillColor=light-dark(#3d91ff, #ededed);" vertex="1" parent="1">
                    <mxGeometry x="600" y="770" width="80" height="40" as="geometry"/>
                </mxCell>
                <mxCell id="71" style="edgeStyle=elbowEdgeStyle;html=1;exitX=0.5;exitY=1;exitDx=0;exitDy=0;entryX=0.5;entryY=1;entryDx=0;entryDy=0;" edge="1" parent="1" source="72" target="55">
                    <mxGeometry relative="1" as="geometry">
                        <Array as="points">
                            <mxPoint x="480" y="870"/>
                        </Array>
                    </mxGeometry>
                </mxCell>
                <mxCell id="72" value="" style="rounded=0;whiteSpace=wrap;html=1;fillColor=#cdeb8b;strokeColor=#36393d;" vertex="1" parent="1">
                    <mxGeometry x="770" y="760" width="140" height="60" as="geometry"/>
                </mxCell>
                <mxCell id="73" value="&lt;font style=&quot;color: light-dark(rgb(255, 255, 255), rgb(237, 237, 237)); font-size: 14px;&quot;&gt;next&lt;/font&gt;" style="rounded=0;whiteSpace=wrap;html=1;fillColor=#FF6666;" vertex="1" parent="1">
                    <mxGeometry x="860" y="770" width="40" height="40" as="geometry"/>
                </mxCell>
                <mxCell id="74" value="&lt;font style=&quot;color: light-dark(rgb(255, 255, 255), rgb(237, 237, 237)); font-size: 18px;&quot;&gt;Pear&lt;/font&gt;" style="rounded=0;whiteSpace=wrap;html=1;fillColor=light-dark(#3d91ff, #ededed);" vertex="1" parent="1">
                    <mxGeometry x="780" y="770" width="80" height="40" as="geometry"/>
                </mxCell>
            </root>
        </mxGraphModel>
    </diagram>
</mxfile>